<svg width="512" height="512" viewBox="0 0 512 512" fill="none" xmlns="http://www.w3.org/2000/svg">
<path d="M158.191 408.9H137.941C129.341 408.9 122.541 406.4 117.541 401.4C112.541 396.4 110.041 389.55 110.041 380.85V203.1L112.141 201.15H129.691C138.891 201.15 145.941 203.55 150.841 208.35C155.741 213.05 158.191 220.75 158.191 231.45V408.9ZM238.291 367.5C238.291 382.7 235.791 393.4 230.791 399.6C225.891 405.8 217.491 408.9 205.591 408.9H137.941L112.141 374.1C125.241 371.8 138.191 370.15 150.991 369.15C163.891 368.05 175.641 367.5 186.241 367.5H238.291Z" fill="#FAFAFA"/>
<mask id="path-2-inside-1_2_2" fill="white">
<rect width="512" height="512" rx="25"/>
</mask>
<rect width="512" height="512" rx="25" stroke="#FAFAFA" stroke-width="96" mask="url(#path-2-inside-1_2_2)"/>
</svg>
